<svg xmlns="http://www.w3.org/2000/svg" viewBox="0 0 800 400" width="800" height="400">
  <rect width="800" height="400" fill="#0a0a1e"/>
  <!-- Fiber lines -->
  <path d="M50 200 Q200 100 400 200 Q600 300 750 200" stroke="#00cfff" stroke-width="3" fill="none" opacity="0.8"/>
  <path d="M50 200 Q200 130 400 200 Q600 270 750 200" stroke="#0080ff" stroke-width="2" fill="none" opacity="0.6"/>
  <path d="M50 200 Q200 160 400 200 Q600 240 750 200" stroke="#a0f0ff" stroke-width="1.5" fill="none" opacity="0.5"/>
  <path d="M50 200 Q200 80 400 200 Q600 320 750 200" stroke="#4040ff" stroke-width="2" fill="none" opacity="0.5"/>
  <!-- Glow dots -->
  <circle cx="400" cy="200" r="12" fill="#00cfff" opacity="0.9"/>
  <circle cx="400" cy="200" r="24" fill="#00cfff" opacity="0.3"/>
  <circle cx="400" cy="200" r="40" fill="#00cfff" opacity="0.1"/>
  <circle cx="150" cy="155" r="6" fill="#a0f0ff" opacity="0.7"/>
  <circle cx="650" cy="245" r="6" fill="#a0f0ff" opacity="0.7"/>
  <!-- Cable end -->
  <rect x="360" y="185" width="80" height="30" rx="4" fill="#333"/>
  <rect x="380" y="190" width="40" height="20" rx="2" fill="#555"/>
  <text x="400" y="100" text-anchor="middle" font-family="Arial,sans-serif" font-size="28" font-weight="bold" fill="#00cfff">Fiber Optics Training</text>
  <text x="400" y="135" text-anchor="middle" font-family="Arial,sans-serif" font-size="16" fill="#aaa">Assembler · Installer · Technician</text>
</svg>
